<?xml version="1.0" ?><svg viewBox="0 0 512 512" xmlns="http://www.w3.org/2000/svg"><title/><g data-name="1" id="_1"><path d="M192,332c-78.3,0-142-63.7-142-142S113.7,48,192,48s142,63.7,142,142S270.3,332,192,332Zm0-254A112,112,0,1,0,304,190,112.12,112.12,0,0,0,192,78Z"/><path d="M192,279a89,89,0,1,1,89-89A89.05,89.05,0,0,1,192,279ZM192,131a59,59,0,1,0,59,59A59,59,0,0,0,192,131Z"/><path d="M308.63,448.63A142,142,0,0,1,167.06,317.77,15,15,0,0,1,197,315.45,112,112,0,1,0,317.45,195a15,15,0,1,1,2.32-29.9A142,142,0,0,1,450.63,306.63C450.63,384.93,386.93,448.63,308.63,448.63Z"/><path d="M308.63,395.6a89,89,0,0,1-88.88-85.38,15,15,0,0,1,30-1.18A59,59,0,1,0,311,247.73a15,15,0,0,1,1.18-30,89,89,0,0,1-3.59,177.85Z"/></g></svg>